<svg id="Capa_1" enable-background="new 0 0 512.301 512.301" height="512" viewBox="0 0 512.301 512.301" width="512" xmlns="http://www.w3.org/2000/svg"><g><path d="m506.5 344.831c-5.618-3.967-12.89-3.298-17.688 1.628-17.24 17.7-36.967 32.318-58.755 43.58v-22.764c0-4.142-3.357-7.5-7.5-7.5s-7.5 3.358-7.5 7.5v84c-10.692 7.497-21.976 14.174-33.683 19.936v-153.991h33.683v15.055c0 4.142 3.357 7.5 7.5 7.5s7.5-3.358 7.5-7.5c0-6.393 0-55.052 0-61.302 12.734-17.285 3.53-36.202-13.978-45.141-7.471-3.814-8.376-6.971-10.363-8.754v-14.752c0-4.142-3.357-7.5-7.5-7.5s-7.5 3.358-7.5 7.5v14.751c-1.986 1.781-2.894 4.939-10.363 8.754-17.611 8.991-26.672 27.908-13.979 45.141v13.549h-32.434v-38.593c14.149-14.982 16.622-37.656 5.61-55.202-8.705-13.87-21.958-24.705-39.392-32.204-12.122-5.214-21.184-11.371-26.932-18.297-1.52-1.833-3.466-3.184-5.623-3.976v-14.239c7.759-1.24 14.531-5.759 18.648-12.488 2.162-3.533 1.05-8.15-2.483-10.312-3.531-2.161-8.149-1.05-10.312 2.483-1.866 3.05-4.966 5.075-8.503 5.556-3.121.424-6.238-.394-8.755-2.307-2.515-1.913-4.133-4.691-4.559-7.822-.425-3.129.394-6.237 2.304-8.75 2.507-3.298 1.865-8.003-1.432-10.51-3.297-2.506-8.003-1.865-10.51 1.432-4.334 5.701-6.189 12.749-5.226 19.846.964 7.101 4.637 13.402 10.34 17.741 1.718 1.307 3.56 2.382 5.486 3.229v16.139c-2.156.792-4.102 2.142-5.621 3.974-5.75 6.928-14.812 13.085-26.934 18.299-17.434 7.499-30.687 18.334-39.392 32.204-11.012 17.545-8.539 40.219 5.61 55.202v38.593h-32.435v-13.55c5.434-7.375 8.47-18.585 3.271-28.415-8.588-16.243-20.278-15.453-26.1-23.776-.442-.633-.952-1.201-1.512-1.703v-14.752c0-4.142-3.357-7.5-7.5-7.5s-7.5 3.358-7.5 7.5v14.751c-1.99 1.785-2.893 4.94-10.364 8.754-1.226.626-2.387 1.313-3.518 2.027-2.393-13.382-3.609-27.011-3.609-40.672 0-5.189.192-10.592.572-16.059.288-4.132-2.829-7.715-6.961-8.002-4.147-.285-7.716 2.83-8.003 6.962-.403 5.812-.608 11.564-.608 17.099 0 18.05 1.983 36.053 5.897 53.566-5.92 9.861-4.481 21.073 2.253 30.225v152.231c-119.586-119.035-93.019-322.708 59.339-404.171-30.72 32.085-51.96 71.65-61.624 114.941-.903 4.042 1.643 8.051 5.686 8.954 4.042.904 8.051-1.644 8.954-5.686 9.65-43.232 31.613-82.507 63.514-113.579 11.111-10.821-1.575-28.883-15.474-22.033-44.398 21.888-81.916 55.587-108.495 97.452-112.976 177.94 14.815 413.105 227.329 413.097 102.613 0 196.14-58.305 241.469-150.247 3.02-6.128 1.233-13.161-4.345-17.102zm-367.666 116.293c-11.854-7.112-23.136-15.193-33.682-24.131v-119.773h33.682zm0-158.904h-33.682v-26.414h33.682zm3.776-41.414h-41.228c-1.969-3.301-3.031-7.85-1.241-11.235 5.517-10.451 13.13-9.379 21.852-18.261 8.707 8.867 16.32 7.799 21.852 18.261 1.736 3.282.823 7.784-1.235 11.235zm43.659 222.461c-11.108-3.844-21.97-8.471-32.435-13.82 0-8.558 0-165.228 0-169.924h32.435zm98.55 13.428c-4.768.288-9.818.485-15.443.485-11.333 0-22.736-.762-33.986-2.269v-85.312c0-16.431 9.185-31.12 23.971-38.335.473-.23 1.016-.23 1.488 0h.001c14.785 7.215 23.97 21.904 23.97 38.335v87.096zm34.121-4.359c-6.323 1.25-12.705 2.253-19.121 3.021v-85.758c0-22.211-12.412-42.065-32.391-51.815-4.656-2.272-9.995-2.272-14.647 0-19.979 9.75-32.392 29.604-32.392 51.815v82.844c-6.428-1.256-12.807-2.753-19.121-4.505v-165.974h117.672zm0-185.372h-117.671c0-5.826 0-49.512 0-56.658h117.671zm4.409-71.658h-126.489c-9.213-10.049-10.771-25.017-3.497-36.604 7.057-11.243 18.029-20.125 32.614-26.398 13.969-6.008 24.731-13.359 32.009-21.858h4.236c7.275 8.498 18.039 15.849 32.009 21.858 14.585 6.273 25.558 15.155 32.614 26.398 7.274 11.587 5.717 26.555-3.496 36.604zm43.025 242.689c-10.531 4.353-21.392 8.001-32.434 10.896 0-11.095 0-178.763 0-189.368h32.434zm48.683-175.775h-33.683c0-21.513 0 7.721 0-26.414h33.683zm-38.694-52.651c2.336-4.417 5.973-7.908 10.811-10.378 4.41-2.252 8.105-4.892 11.042-7.882 2.935 2.99 6.631 5.629 11.042 7.882 4.837 2.47 8.474 5.961 10.81 10.378 1.736 3.284.822 7.787-1.234 11.236h-41.234c-2.059-3.45-2.973-7.952-1.237-11.236zm53.694 190.336v-33.106c23.375-11.165 44.642-25.864 63.368-43.793-15.801 29.438-37.446 55.69-63.368 76.899z"/><path d="m226.937 293.089c4.143 0 7.5-3.358 7.5-7.5v-13.909c0-4.142-3.357-7.5-7.5-7.5s-7.5 3.358-7.5 7.5v13.909c0 4.142 3.357 7.5 7.5 7.5z"/><path d="m260.104 293.089c4.143 0 7.5-3.358 7.5-7.5v-13.909c0-4.142-3.357-7.5-7.5-7.5s-7.5 3.358-7.5 7.5v13.909c.001 4.142 3.358 7.5 7.5 7.5z"/><path d="m293.272 293.089c4.143 0 7.5-3.358 7.5-7.5v-13.909c0-4.142-3.357-7.5-7.5-7.5s-7.5 3.358-7.5 7.5v13.909c0 4.142 3.358 7.5 7.5 7.5z"/></g></svg>